/* XPM */
static char *_7798d3d0c2647f9dc58a3ed1c840e8e[] = {
/* columns rows colors chars-per-pixel */
"64 64 256 2 ",
"   c #1D141A",
".  c #351404",
"X  c #3A1605",
"o  c #3E1906",
"O  c #221A1E",
"+  c #20171C",
"@  c #2F1002",
"#  c #241D22",
"$  c #2B2325",
"%  c #2B2426",
"&  c #352927",
"*  c #3A3236",
"=  c #421B07",
"-  c #441D09",
";  c #481D08",
":  c #551D0A",
">  c #4C220A",
",  c #46210F",
"<  c #53230B",
"1  c #54290C",
"2  c #5B260D",
"3  c #5D310E",
"4  c #4D2816",
"5  c #5B2C15",
"6  c #562913",
"7  c #5E3216",
"8  c #652A0E",
"9  c #63370F",
"0  c #642B13",
"q  c #692E15",
"w  c #64331A",
"e  c #6A3718",
"r  c #733315",
"t  c #733419",
"y  c #7C3B1C",
"u  c #79371B",
"i  c #43393A",
"p  c #6B3A23",
"a  c #733D23",
"s  c #7C3D22",
"d  c #783824",
"f  c #774719",
"g  c #6E4119",
"h  c #57453E",
"j  c #6E4128",
"k  c #794628",
"l  c #754835",
"z  c #784D28",
"x  c #483E41",
"c  c #4A4443",
"v  c #494242",
"b  c #544D4C",
"n  c #57514E",
"m  c #5A5654",
"M  c #645B5A",
"N  c #73574A",
"B  c #726B67",
"V  c #7B7472",
"C  c #746C69",
"Z  c #66625B",
"A  c #843D1E",
"S  c #823E24",
"D  c #83511C",
"F  c #8B581C",
"G  c #925E1C",
"H  c #854324",
"J  c #8A4425",
"K  c #8D4A2B",
"L  c #85482B",
"P  c #914625",
"I  c #944C2B",
"U  c #994C2C",
"Y  c #865728",
"T  c #97552A",
"R  c #8D4C33",
"E  c #874D35",
"W  c #895439",
"Q  c #9C5433",
"!  c #9C5B3B",
"~  c #985637",
"^  c #964F31",
"/  c #A25533",
"(  c #A45936",
")  c #A45B3A",
"_  c #AB5E3C",
"`  c #A95936",
"'  c #A0522F",
"]  c #96642B",
"[  c #996837",
"{  c #94673A",
"}  c #AA613E",
"|  c #A36E3C",
" . c #B2613E",
".. c #A77535",
"X. c #B17D3B",
"o. c #895943",
"O. c #985C43",
"+. c #A65E42",
"@. c #9A6547",
"#. c #936B55",
"$. c #A56343",
"%. c #AC6543",
"&. c #AC6B4C",
"*. c #A86849",
"=. c #B36C4A",
"-. c #B76847",
";. c #A67743",
":. c #B6724D",
">. c #A96C54",
",. c #B66C52",
"<. c #AB7559",
"1. c #B57453",
"2. c #BB7554",
"3. c #BB7955",
"4. c #B5795C",
"5. c #BC7B5B",
"6. c #B57459",
"7. c #93786C",
"8. c #B87B64",
"9. c #A87C61",
"0. c #C17D5B",
"q. c #CC7D5A",
"w. c #C47755",
"e. c #C67451",
"r. c #C67D62",
"t. c #B3803D",
"y. c #B58549",
"u. c #BA8D55",
"i. c #BE925A",
"p. c #AF8142",
"a. c #88827E",
"s. c #B9846A",
"d. c #BD9669",
"f. c #B98C75",
"g. c #C1815F",
"h. c #C49557",
"j. c #D2815F",
"k. c #C38263",
"l. c #CC8563",
"z. c #CA8B6B",
"x. c #C6896A",
"c. c #D28C6B",
"v. c #D48765",
"b. c #C89966",
"n. c #C68D73",
"m. c #D48D74",
"M. c #CC9274",
"N. c #C89378",
"B. c #D39375",
"V. c #D3957A",
"C. c #D49A7C",
"Z. c #DC9B7C",
"A. c #DA9477",
"S. c #D39868",
"D. c #E39875",
"F. c #CCA267",
"G. c #D3A66B",
"H. c #CAA574",
"J. c #D6AA77",
"K. c #DCB37A",
"L. c #D5A96C",
"P. c #989793",
"I. c #8C8582",
"U. c #B49789",
"Y. c #AC9A91",
"T. c #BDA599",
"R. c #B7ACA7",
"E. c #B0A9A6",
"W. c #D59D82",
"Q. c #DB9D81",
"!. c #D49A87",
"~. c #CE9A82",
"^. c #E39D83",
"/. c #DCA285",
"(. c #DBA38A",
"). c #DDA98E",
"_. c #D3A68B",
"`. c #DAB886",
"'. c #DEAC93",
"]. c #D8AA96",
"[. c #DCB498",
"{. c #CDA78B",
"}. c #E1A285",
"|. c #E2A48A",
" X c #E4AA8D",
".X c #E9AB89",
"XX c #E2B987",
"oX c #E4AC93",
"OX c #E8AB95",
"+X c #E3B196",
"@X c #EAB195",
"#X c #E4B39B",
"$X c #EBB49B",
"%X c #E7BB9A",
"&X c #F1B59A",
"*X c #D3B7A6",
"=X c #ECBCA3",
"-X c #E8BBA6",
";X c #F2BCA5",
":X c #F2BCA8",
">X c #DFC39B",
",X c #E4C18D",
"<X c #E4C393",
"1X c #E3C49B",
"2X c #E8C899",
"3X c #EDC3AC",
"4X c #E8C8A5",
"5X c #F3C3AC",
"6X c #F1C0A7",
"7X c #EED4A7",
"8X c #EDC6B2",
"9X c #EDCAB5",
"0X c #E9CBB6",
"qX c #F4C5B1",
"wX c #F3CAB5",
"eX c #F3CDBA",
"rX c #F8CBB7",
"tX c #EDD3B7",
"yX c #F4D2BD",
"uX c #F8D2BD",
"iX c #F1D7B7",
"pX c #F0D8AB",
"aX c #D0C3BB",
"sX c #D5C9C3",
"dX c #D6CFCC",
"fX c #EDD6C4",
"gX c #F5D5C2",
"hX c #F9D5C2",
"jX c #F5D9C5",
"kX c #F8DAC5",
"lX c #F6DCCB",
"zX c #F9DDCC",
"xX c #F5D7C8",
"cX c #E1DCD9",
"vX c #F6DFD0",
"bX c #F9DFD0",
"nX c #F4CFC0",
"mX c #F5E1CC",
"MX c #F9E1CE",
"NX c #F5E3C6",
"BX c #F5E2D2",
"VX c #F9E3D4",
"CX c #FAE7D9",
"ZX c #FAEADD",
"AX c #F7E8DA",
"SX c #EAE8E6",
"DX c #FBEEE3",
"FX c #F0EFEE",
"GX c #FBF1E4",
"HX c #F1F0EF",
"JX c #FDF4EB",
"KX c #F2F2F1",
"LX c #FEF6F1",
"PX c #FDF9F4",
"IX c #FEFCF9",
"UX c None",
/* pixels */
"UXUXUXUXUXUXUXUXUXUXUXUXUXUXUXUXUXUXUXUXUXUXUXUX7XpX2X`.H.d.d.`.F.d.H.>X7X>X>X<X<X>X`.UXUXUXUXUXUXUXUXUXUXUXUXUXUXUXUXUXUXUXUXUX",
"UXUXUXUXUXUXUXUXUXUXUXUXUXUXUXUXUXUXUXUXUX<X<X7XpX7X2X,XF.i.d.H.i.i.H.>X7X>X<X<X1XXXH.#.p UXUXUXUXUXUXUXUXUXUXUXUXUXUXUXUXUXUXUX",
"UXUXUXUXUXUXUXUXUXUXUXUXUXUXUXUXUXUXUXUX1X7X7XpXtXpX2XK.h.y.h.F.u.i.`.<X,X`.,X2X<X`.d.{ g g j UXUXUXUXUXUXUXUXUXUXUXUXUXUXUXUXUX",
"UXUXUXUXUXUXUXUXUXUXUXUXUXUXUXUXUXUX4X7XiXmXNXVXNX>XK.K.h.u.L.h.u.F.H.L.L.K.,X,XXXJ.h.;.Y g 5 4 5 UXUXUXUXUXUXUXUXUXUXUXUXUXUXUX",
"UXUXUXUXUXUXUXUXUXUXUXUXUXUXUXUXtX0XpXNXZXGXGXZXNX>X`.L.i.F.K.F.u.F.G.G.L.K.`.,XXXL.G.u.z j 7 7 w p l UXUXUXUXUXUXUXUXUXUXUXUXUX",
"UXUXUXUXUXUXUXUXUXUXUXUXUXUXUXUXtXiXBXHXJXJXJXDXNX>XH.F.F.K.`.F.H.J.J._.`.`.,X,XK.J.F.y.{ Y z f g z { ;.UXUXUXUXUXUXUXUXUXUXUXUX",
"UXUXUXUXUXUXUXUXUXUXUXUXUXUXmXlXZXJXJXJXPXJXJXZXNX>XH.d.`.>X>X>X>X>X1X>X2X4X2X<XXXG.u.;.;.[ [ ] Y z Y z { UXUXUXUXUXUXUXUXUXUXUX",
"UXUXUXUXUXUXUXUXUXUXUXUXUXUXBXDXPXPXIXPXPXPXJXZXcX7X[.{.4XtXiXNXiXtXiXeXiXpX4X2XXXJ.h.1.y.p.X...] g g z { ;.UXUXUXUXUXUXUXUXUXUX",
"UXUXUXUXUXUXUXUXUXUXUXUXUXvXZXPXIXIXIXIXPXLXJXZXBX0X0X0XfXjXNXMXmXNXBXVXlXtXtX4X%X`.J.H.S.h.t.] F f f f z ..p.UXUXUXUXUXUXUXUXUX",
"UXUXUXUXUXUXUXUXUXUXUXUXmXDXKXIXIXIXIXIXLXJXJXDXAXfXfXmXmXmXCXCXBXZXCXVXNXlXvXyX4X4X%XXXL.h.t...] f f g f z ] p.UXUXUXUXUXUXUXUX",
"UXUXUXUXUXUXUXUXUXUXUXUXBXLXIXIXIXIXPXPXLXJXJXGXSXmXmXAXAXVXCXMXMXMXMXMXkXMXVXzXfXeX3X%XK.S.y.t.X.G G F z f f ..UXUXUXUXUXUXUXUX",
"UXUXUXUXUXUXUXUXUXUXUXBXDXPXIXIXPXPXPXPXJXGXJXGXGXAXCXZXCXMXNXkXkXkXkXkXkXzXMXVXMXzXiX<XK.L.y.X...Y f F D f 9 f z UXUXUXUXUXUXUX",
"UXUXUXUXUXUXUXUXUXUXUXAXHXIXPXIXPXPXPXJXJXJXDXJXHXGXDXCXVXzXkXkXyXyXiXuXuXkXxXMXMXgX8X%XK.F.t...[ ] F f G G g 3 g UXUXUXUXUXUXUX",
"UXUXUXUXUXUXUXUXUXUXAXDXLXPXPXPXPXJXJXDXZXZXZXDXGXGXDXCXzXkXgXuXkXyXyXeXyXyXhXkXyXtX%XXXL.h...] F Y G G G G D 9 1 1 UXUXUXUXUXUX",
"UXUXUXUXUXUXUXUXUXUXAXLXPXPXPXPXJXGXDXCXVXVXCXZXDXDXZXCXzXhXhXgXkXiXyXiXrXyXuXuXuXqX%X XL.y.] ] Y g z G f D f 9 1 1 UXUXUXUXUXUX",
"UXUXUXUXUXUXUXUXUXUXJXPXIXPXLXLXGXZXMXzXzXzXVXVXZXDXCXVXMXxXlXxXkXkXlXyXiXrXiXrXyXiX3XXXS.h...G f e 9 f f 9 9 1 > 1 UXUXUXUXUXUX",
"UXUXUXUXUXUXUXUXUXUXJXPXIXPXLXGXBXNXlXkXkXlXNXVXVXCXVXVXxXxXzXbXvXMXNXgXgXyXiXwXwX8X6XC...] F z f > > 9 e 3 1 < > > UXUXUXUXUXUX",
"UXUXUXUXUXUXUXUXUXUXJXPXPXLXJXBXkXyXyXgXjXlXzXzXvXlXzXxXxXzXxXzXzXVXzXzXgXtXrXeX3X=X'.b.W e 5 1 3 - o o 9 9 1 > ; > UXUXUXUXUXUX",
"UXUXUXUXUXUXUXUXUXUXJXPXLXJXDXCXlXgXiXiXyXgXyXyXnXeXeXnXxXzXzXzXMXMXMXkXgXgXiX5X%X'.C.<.k 7 < - - - o @ > 1 - - = > UXUXUXUXUXUX",
"UXUXUXUXUXUXUXUXUXUXLXLXJXZXVXBXlXgXgXeXeXyXeXeXeXeXeXfXxXzXVXVXVXZXCXVXVXNXyX8X#X(.M.<.k 6 - o o o o @ - ; o o = > UXUXUXUXUXUX",
"UXUXUXUXUXUXUXUXUXUXPXLXKXZXvXxXfXnXfXnXeXfXkXvXbXbXxXnXxXxXxXlXzXVXVXzXMXzXyX8X%X/.M.4.W 5 = X X o X @ o - X o = 1 UXUXUXUXUXUX",
"UXUXUXUXUXUXUXUXUXUXPXLXJXDXZXAXBXvXfXtX0XeXxXxXxXlXvXVXvXbXbXlXlXzXkXxXzXhXeX3X[.W.z.3.O.g > X X o . . o o . o ; 1 UXUXUXUXUXUX",
"UXUXUXUXUXUXUXUXUXIXLXJXJXDXZXAXVXvXlXlXxXxXxX9X9XxXlXbXVXVXbXbXzXzXzXzXxXhX8X4X+XZ.x.3.} ! k < o o . X - o . X ; 1 UXUXUXUXUXUX",
"UXUXUXUXUXUXUXUXUXPXLXJXJXDXDXBXxXyXyXyXnXlXvXkXxXnXxXlXvXVXVXbXVXVXzXzXhXeX3X=X[.W.h.3.=.$.~ a > o - X - o . X > 2 UXUXUXUXUXUX",
"UXUXUXUXUXUXUXUXUXPXJXGXDXDXCXvXyX8X9XnXyXvXBXlXxXlXfXeXxXvXbXvXbXVXBXbXlXyX3X-X[._.z.s.3.:.! k 5 : ; . , o X X 1 3 UXUXUXUXUXUX",
"UXUXUXUXUXUXUXUXUXJXAXBXlXxXfX-X].{.[.-X8XkXxXyXfXxXeX-X8X9X9X8X9X9XeX0X0X9X-X[.%X'.W.M.k.:.@.L p 6 = o - . X = 3 UXUXUXUXUXUXUX",
"UXUXUXUXUXUXUXUXUXDXtX*X*X*Xf.#.W o.>.f.'.8XtX9X0X8X#XN.9.9.9.9.s.f.f.f.9.f.f.f.'.[._.V.g.3.*.~ d = o , X . = 6 e UXUXUXUXUXUXUX",
"UXUXUXUXUXUXUXUXUXBX{.&.k p 5 , = 6 w R 2.C.#X%X+X).V.1.R w - , o , 7 f L D L k 9.n.n.(.V.u.=.$.p - = X . - l 8.s.UXUXUXUXUXUXUX",
"UXUXUXUXUXUXUXUXUXVX{.O.a a p l p w 6 q I 0.V.W.(.C.g.) S u 0 6 5 7 j k j a w 5 O.4.x.C.W.B.k.+.p . . X 6 o.6.O.e UXUXUXUXUXUXUX",
"UXUXUXUXUXUXUXUXUXZX8Xs.L w 4 w p w 5 0 t ) *.&.0.3.Q P S P J q 0 a K <.n.n.O.k W [ <.N.W.M.x.>.p . , o.8.O.S d 0 0 UXUXUXUXUXUX",
"UXUXUXUXUXUXUXUXUXJXvX{.o.W N M M b a 4 5 s.[.-X9XW.2.) t t q 5 p 4 4 4 p W *.4.4.s.M.W.C.x.x.4.R < k r.*.S d t 0 q UXUXUXUXUXUX",
"UXUXUXUXUXUXUXUXUXLXVX3Xf.~.].P.P.Y.s.p a N.yXlXvX@XZ.1.R L y k #.M m h h 4 p >.n.M.W./.Z.M.z.k.*.l ~ +.+.>.O.d 0 0 UXUXUXUXUXUX",
"UXUXUXUXUXUXUXUXUXLXZXxXnX X(.!._.@XW.8.1.(.kXCXMX=X@XW.C.=.) *.{.Y.P.Y.s.E o.s.W.).[.#XW.z.k.0.5.1.&.+.+.n.>.R d p UXUXUXUXUXUX",
"UXUXUXUXUXUXUXUXUXPXGXDXbX'.m.V.|.@X@X@XZ.=XMXCXlX3X6X3X4XC.z.C.W.!.].'.!.s.(.3X%X6X3X-XC.l.0.3.1.4.k.>.R R R R o.UXUXUXUXUXUXUX",
"UXUXUXUXUXUXUXUXUXJXJXLXDXnX#X$X5X:X;X&X|.wXMXMXeX5XeXuX8X+X#X5X$X$X#X#X$X%X3X8XeXwX8X%Xz.g.w.=.+.%.z.(.E d d O.>.UXUXUXUXUXUXUX",
"UXUXUXUXUXUXUXUXUXGXJXJXJXzXeX:X-X:X5X$X XkXCXMXwX5XeXgXgX9X-X5XwXwX9XeXwX6X5XwXwXrXtX'.g.3.:.%.! +.v.=X>.R O.8.>.UXUXUXUXUXUXUX",
"UXUXUXUXUXUXUXUXUXZXDXGXGXMXiX5X:X:X=X@X5XVXCXkX5X6X6XwXlXgXrX5X6X5X5XrXuXyXyXyXyXgXeX'.0.2.-.| Q ` m.$X8.@.>.~.UXUXUXUXUXUXUXUX",
"UXUXUXUXUXUXUXUXUXbXVXMXMXwXqXrXeXqX-X3XMXCXMXuX5X6X@X%XrXhXgXeX6X5XrXuXhXhXuXkXkXiX3X(.l.2.%.) ' +.m.(.!.6.6.8.UXUXUXUXUXUXUXUX",
"UXUXUXUXUXUXUXUXUXjXyXeX5X5XrXhXhXwX5XlXZXVXzXrX5X=X@X|.:XrXxXnXqXqXuXuXuXuXyXrX5X6XoXZ.l.3.%.( /  .m.!.!.!.!.6.UXUXUXUXUXUXUXUX",
"UXUXUXUXUXUXUXUXUXtX6X$X;XwXuXuXrX+XoXvXCXxXkXyX5X6X$XD.OX:XnXnXuXrX5X5X6X&X&X.X^.A.v.q.w.2.%.( ' _ -.m.OX!.!.UXUXUXUXUXUXUXUXUX",
"UXUXUXUXUXUXUXUXUX4X#X X@XqXyXwX$XC.'.zXzXhXhXrX:X&X&X^.r.:XqXrXuXuXqX6X&X.XD.D.D.j.q.:.=.=. .} / ` ,.,.,.8.r.UXUXUXUXUXUXUXUXUX",
"UXUXUXUXUXUXUXUXUX3X%X|..X%X6X5X).[.gXnXnXhXhXrX:X:XqXrXr.^.:XqXrXrXqX;X&XD.D.v.q.w.e.-.-.-.} } _ ,.^.r.,.8.UXUXUXUXUXUXUXUXUXUX",
"UXUXUXUXUXUXUXUXUXUX4X/.M./.%X@X!.9XnXqXrXuXrXqXOX:XqX:Xr.r.^.$X5X5X&X.XD.j.j.q.e.e. . .} ) ) } +.e.~.OX^.!.UXUXUXUXUXUXUXUXUXUX",
"UXUXUXUXUXUXUXUXUXUXiX'.M.C..X/.x.-X8X#X:XqX:XOX^.OX$X^.r.r.m.OX&X&X.X.XA.q.q.j.e.-. .` ) ) ) } +.+.O.8.m.UXUXUXUXUXUXUXUXUXUXUX",
"UXUXUXUXUXUXUXUXUXUXkX-X/.Z.B.k.=.W.(.n.V.^.Q.r.,.,.r.e.V.}.B.Q. X.X.XZ.S.q.q.j.e.-. .` / ( ) ) +.R : t UXUXUXUXUXUXUXUXUXUXUXUX",
"UXUXUXUXUXUXUXUXUXUXUXwX=X/.8.=.%.2.6.$.~ %.-.^ A t S / $X:X|.Z.}.|.Z.D.A.l.w.j.e.-. ./ ( ( ( ! Q S UXUXUXUXUXUXUXUXUXUXUXUXUXUX",
"UXUXUXUXUXUXUXUXUXUXUXlXiX(.,.5.2.r.l.+.t q d J O.>.8.(.qXqX&X}.Z.}.Z.Z.A.v.j.j.-. . .` / Q T I ^ d UXUXUXUXUXUXUXUXUXUXUXUXUXUX",
"UXUXUXUXUXUXUXUXUXUXUXVXkXM.5.C.x.C.(.r.R d K *.m.OXOX5XeXrX;XOX|.|.}.}.A.v.g.e.-. .` ` T T K K J u & UXUXUXUXUXUXUXUXUXUXUXUXUX",
"UXUXUXUXUXUXUXUXUXUXUXCXkXx.x.V.m.).$X/.5.6.6.x.oX8XeX8XeXqX=XOX X|.}.}.Z.c.q.w. .` / T K P H S y e & UXUXUXUXUXUXUXUXUXUXUXUXUX",
"UXUXUXUXUXUXUXUXUXUXUXUXMXM.0.3.0.V.$X=X#X+XOX$X8XnXrX8X-X#XOXOX|.|.|.Z.A.v.q.w. .` ' U P J y u t p & & UXUXUXUXUXUXUXUXUXUXUXUX",
"UXUXUXUXUXUXUXUXUXUXUXUXlXM.( P y R *.>.4.Q.OX:X:X:XOX^.A.v.m.A.A.}.OX/.S.j.e.e._ ' U P A A y u u l & $ UXUXUXUXUXUXUXUXUXUXUXUX",
"UXUXUXUXUXUXUXUXUXUXUXUXiXM.%.u 2 : : : 2 t S S S R Q / U P ' -.c.|.@XW.v.w.-.,./ U P A y t u u A 7.i # & UXUXUXUXUXUXUXUXUXUXUX",
"UXUXUXUXUXUXUXUXUXUXUXUX4X0.=.3.:.,.=.%./ U %.0.m.^.^.A.x.>.*.,.A.OX XM.q.-.-. .' A A r t r t d O.R.x # % UXUXUXUXUXUXUXUXUXUXUX",
"UXUXUXUXUXUXUXUXUXUXUXUXUX1.%.=.r.0.3.3.%.P P Q 0.!.oX&X;X;X;X&X X).C.v.w.-.%./ P u 8 q q t t L U.R.* O % & UXUXUXUXUXUXUXUXUXUX",
"UXUXUXUXUXUXUXUXUXUXUXUXUX1.*.:.z.u.%.Q ^ / ) } ,.x.W.OXOX X^.Z./.A.c.0.-._ / ' y 0 8 q q t o.Y.dXE.%   # % UXUXUXUXUXUXUXUXUXUX",
"UXUXUXUXUXUXUXUXUXUXUXB b #.3.M.(.C.z.5.=.=.=.=.2.m.Z.OX X^.V.V.Z.V.l.2._ U U S q 2 8 8 q W T.cXcX7.O   O # & UXUXUXUXUXUXUXUXUX",
"UXUXUXUXUXUXUXUXUXV B n c N s.+XqX3X5X=X+X).(.).oX#X$X$X@X X/.C.C.z.3._ T P H r 2 2 0 0 o.T.cXcXaXx     + O $ UXUXUXUXUXUXUXUXUX",
"UXUXUXUXUXUXUXV B m c c m b N -XhXxXgXrXqXqXqXuXuXhXuXqX=X+X/.M.s.=.( U A A r 8 6 0 p #.aXSXSXcXY.#       + O $ UXUXUXUXUXUXUXUX",
"UXUXUXUXUXC Z b v c n C Z # % 7.[.'.#X#X$X=X3XwXuXnXeX3X#XQ.x.4.! H y r r 8 2 : l 7.R.cXSXSXcXE.m           + O % UXUXUXUXUXUXUX",
"UXUXUXUXUXn c v c m C C v + # * 8.6.x.M.C._.).#X=X=X$XoX~.x.:.! A r 8 8 8 2 p #.R.dXSXKXFXSXsXV &             + % UXUXUXUXUXUXUX",
"UXUXUXUXn v v v m V V b % # # % l L R &.4.s.z.M.V.V.M.x.3.*.^ H q 8 8 q a #.R.sXSXFXKXKXSXcXP.x O               # $ UXUXUXUXUXUX",
"UXUXUXUXc v c m B a.M * # # # # h o.d R ~ $.=.1.1.%.+.) Q K k y r r k #.U.aXSXFXFXKXKXKXSXaXM #                 O O O UXUXUXUXUX",
"UXUXUXUXb b m C I.m & # # # # # M E.U.W s R @.*.O.K J L L H H L #.U.aXcXSXFXFXFXKXKXFXSXdXV %                     + + O UXUXUXUX",
"UXUXUXUXv b B I.V * # # + # % % b E.SXdXU.@.[ @.*.&.$.O.! @.7.U.sXcXSXSXSXKXKXFXKXKXSXSXP.*                   O O + O O UXUXUXUX"
};
