/* XPM */
static char *_db3e8c7b06d4ff59abc3e92b4e77f3c[] = {
/* columns rows colors chars-per-pixel */
"32 32 256 2 ",
"   c #1E151A",
".  c #371405",
"X  c #3B1705",
"o  c #3D1906",
"O  c #3F1908",
"+  c #21191D",
"@  c #261E21",
"#  c #2D2626",
"$  c #32282C",
"%  c #393132",
"&  c #441C07",
"*  c #441D09",
"=  c #472009",
"-  c #4C220A",
";  c #51260B",
":  c #542B0C",
">  c #5C2D0E",
",  c #5C260E",
"<  c #5C320E",
"1  c #4B2310",
"2  c #552812",
"3  c #5C2913",
"4  c #582B14",
"5  c #5D3216",
"6  c #5D311C",
"7  c #622A13",
"8  c #662B12",
"9  c #6F3114",
"0  c #6B3D14",
"q  c #63341E",
"w  c #68361A",
"e  c #723316",
"r  c #73361A",
"t  c #7B3A1B",
"y  c #7B3618",
"u  c #4F2F21",
"i  c #4D382E",
"p  c #50372B",
"a  c #693821",
"s  c #663A26",
"d  c #723420",
"f  c #703A20",
"g  c #7D3D22",
"h  c #6E4018",
"j  c #74451C",
"k  c #77481D",
"l  c #7D4D1C",
"z  c #6B4021",
"x  c #75422A",
"c  c #7A442B",
"v  c #784626",
"b  c #7E5128",
"n  c #754C38",
"m  c #4F4846",
"M  c #584A46",
"N  c #605658",
"B  c #675E5F",
"V  c #6C6461",
"C  c #72696A",
"Z  c #843F21",
"A  c #804D1A",
"S  c #87541D",
"D  c #8D591B",
"F  c #8C4526",
"G  c #8A472C",
"H  c #944C2D",
"J  c #914426",
"K  c #825424",
"L  c #875826",
"P  c #8D5D2C",
"I  c #87592D",
"U  c #975728",
"Y  c #8A4C31",
"T  c #844D33",
"R  c #924C30",
"E  c #885D33",
"W  c #885236",
"Q  c #9B5333",
"!  c #93523B",
"~  c #9D5B3C",
"^  c #965637",
"/  c #A25432",
"(  c #A35A36",
")  c #A45C3B",
"_  c #AB5C3A",
"`  c #9C692D",
"'  c #986537",
"]  c #A7603F",
"[  c #AA613E",
"{  c #A06D31",
"}  c #AB7A3A",
"|  c #A7793E",
" . c #935D43",
".. c #995942",
"X. c #9D5640",
"o. c #A65F46",
"O. c #9A6347",
"+. c #8B6D5C",
"@. c #976751",
"#. c #AC6343",
"$. c #AC6C4C",
"%. c #A16346",
"&. c #B56643",
"*. c #B26B4D",
"=. c #B96C4B",
"-. c #B76A47",
";. c #A87C46",
":. c #B8724F",
">. c #A66C53",
",. c #A96E59",
"<. c #AD7558",
"1. c #B47351",
"2. c #BA7553",
"3. c #BD7D5B",
"4. c #BA7856",
"5. c #9B7563",
"6. c #A67C69",
"7. c #B67A64",
"8. c #BC7D61",
"9. c #C26E4B",
"0. c #C67754",
"q. c #C97A56",
"w. c #C17C5C",
"e. c #CD7D5B",
"r. c #C77A56",
"t. c #C87E64",
"y. c #B88645",
"u. c #AA8053",
"i. c #BA8C52",
"p. c #BB8D5C",
"a. c #BD9054",
"s. c #938178",
"d. c #AD816E",
"f. c #B1826C",
"g. c #BC846B",
"h. c #BF8362",
"j. c #C4855D",
"k. c #C89E5F",
"l. c #C39659",
"z. c #C38363",
"x. c #CD8465",
"c. c #C48867",
"v. c #C48A6B",
"b. c #C9896B",
"n. c #C9846D",
"m. c #D38A6A",
"M. c #D68866",
"N. c #C99669",
"B. c #D8916E",
"V. c #CC8F71",
"C. c #CE8F78",
"Z. c #D28D74",
"A. c #CD9172",
"S. c #D19476",
"D. c #DA9776",
"F. c #D59779",
"G. c #D49A7C",
"H. c #DD9C7D",
"J. c #CBA16A",
"K. c #D3A86C",
"L. c #CFA876",
"P. c #D2AA74",
"I. c #DAAC73",
"U. c #DDAF79",
"Y. c #DEB47C",
"T. c #E7A17E",
"R. c #748485",
"E. c #BA9B89",
"W. c #B49D91",
"Q. c #C29882",
"!. c #D59B84",
"~. c #DB9E84",
"^. c #DA9D89",
"/. c #E49D85",
"(. c #C7A18E",
"). c #DEA186",
"_. c #D3A58D",
"`. c #DCA58A",
"'. c #DDA98C",
"]. c #D5A084",
"[. c #D7B584",
"{. c #DAB68C",
"}. c #DEB283",
"|. c #D5AD93",
" X c #DCAC92",
".X c #D6AF99",
"XX c #D6A791",
"oX c #DDB99C",
"OX c #E1A283",
"+X c #E3A58B",
"@X c #E2A88E",
"#X c #EAAB8F",
"$X c #F0AE8E",
"%X c #E2BF8B",
"&X c #E4AC93",
"*X c #E9AE93",
"=X c #E5AE99",
"-X c #E3B193",
";X c #EAB297",
":X c #E6BF93",
">X c #E3B49B",
",X c #EAB59C",
"<X c #E8BA9B",
"1X c #C2BBB8",
"2X c #EABCA3",
"3X c #E7BFAA",
"4X c #EBBFAA",
"5X c #EAB9A3",
"6X c #F2BDA5",
"7X c #F2BFA9",
"8X c #E3C18E",
"9X c #E4C394",
"0X c #E7C39F",
"qX c #EFC0A6",
"wX c #EDC3AB",
"eX c #ECCBAB",
"rX c #E5C8A8",
"tX c #F2C2AB",
"yX c #EFD5A9",
"uX c #ECCCB1",
"iX c #E7C6B5",
"pX c #F3CAB4",
"aX c #F8CAB6",
"sX c #F3CDBA",
"dX c #F8CEBA",
"fX c #F9C6B5",
"gX c #EFD7BA",
"hX c #EFDABB",
"jX c #F4D2BD",
"kX c #F9D2BE",
"lX c #F1D8BD",
"zX c #F0D9B0",
"xX c #D9D3CF",
"cX c #EFD6C5",
"vX c #F4D5C3",
"bX c #F8D5C2",
"nX c #F5DAC5",
"mX c #F8DBC6",
"MX c #F6DCCC",
"NX c #F9DDCC",
"BX c #E2DCD9",
"VX c #F9E0CF",
"CX c #F2E0CF",
"ZX c #F5E3D4",
"AX c #F9E3D3",
"SX c #F7E6D9",
"DX c #FAEADC",
"FX c #F8E8D7",
"GX c #EBE9E7",
"HX c #FAEDE2",
"JX c #FBF1E5",
"KX c #FCF4EB",
"LX c #FEF7F0",
"PX c #FEF9F5",
"IX c #FEFCF9",
"UX c None",
/* pixels */
"UXUXUXUXUXUXUXUXUX0XyXzX9Xk.a.a.J.9X%X9X8Xu.z f UXUXUXUXUXUXUXUX",
"UXUXUXUXUXUXUXuXgXAXDXzX[.a.P.a.J.P.Y.8XY.a.b 5 5 UXUXUXUXUXUXUX",
"UXUXUXUXUXUXcXFXLXLXHXcXP.L.9X{.{.{.9X8XU.i.' P K E E UXUXUXUXUX",
"UXUXUXUXUXCXKXIXPXLXHXcX0XrXhXhXhXhXuX0X}.a.j.} L k I ;.UXUXUXUX",
"UXUXUXUXUXJXIXIXIXKXJXZXMXVXFXFXFXZXVXlXeX9XK.y.` l h L ;.UXUXUX",
"UXUXUXUXDXPXIXIXLXKXKXHXSXFXNXmXmXmXmXZXVXeXI.y.` D S 0 S UXUXUX",
"UXUXUXUXKXPXPXPXKXHXHXJXHXVXbXbXlXdXkXmXkX<XI.} P D D D < : UXUX",
"UXUXUXHXIXPXLXDXVXVXSXHXDXMXbXMXnXjXjXkXjX<Xk.` S h l h > : UXUX",
"UXUXUXJXPXPXDXnXnXmXVXAXVXMXMXNXAXnXsXpXtX-X' k 0 = < < ; - UXUX",
"UXUXUXKXPXHXVXnXjXlXvXsXsXMXMXNXVXnXnXwX>Xv.z - = o * = & & UXUX",
"UXUXUXLXLXDXMXvXsXsXMXMXvXvXMXMXAXVXnXpX Xb.c O X X . o & - UXUX",
"UXUXUXIXJXHXDXFXMXvXsXsXAXAXAXVXVXNXvXwX'.j.) 5 . X X X X : UXUX",
"UXUXUXLXJXHXCXsXsXcXMXmXcXMXAXAXAXmXsX5X Xz.1.^ 2 & o X X > UXUX",
"UXUXUXZXiXiXQ.d._.sXsXcX3X_.|.|.oX.X.X_.oX].i.%.a & * . ; UXUXUX",
"UXUXUXrXW x 2 4 T A.=X-XV.Y 4 1 5 v c W g.G.A.1.f o o s >.UXUXUX",
"UXUXUXcXW q s q 3 ^ z.S.#.Z g 7 f  .<.T O.v.!.z.a 1  .! d 7 UXUX",
"UXUXUXDXf.d.R.s.s O.gXpXc.F f c i i q >.g.G.F.c.^ c o.! d 3 UXUX",
"UXUXUXKXVX^.H.;X+X~.AXkX5X>Xw.G.(._.7.|.>XqXS.j.4.3.X.....g UXUX",
"UXUXUXKXJXsX5X7X;X4XZXpXsXpX,XwX2X<X2XpXaXwXc.2.X.w.7.g ,.UXUXUX",
"UXUXUXDXHXbXtXtX,XAXVXtX4XbXdXtXtXkXkXkXnX3Xr.&.^ w.^.%.g.UXUXUX",
"UXUXUXkXpXpXkXpXbXFXbX7X;X5XbXsXaXdXaXaXqX).j.#./ t.^.!.UXUXUXUX",
"UXUXUX0X;XpXdX@XjXmXkX7X*XH.fXdXaXtX$XT.B.q.:.#.( o.t.n.UXUXUXUX",
"UXUXUXwXG.-X=X3XfXkXdX,XfXZ.~.tXtX$XB.M.q.&.[ [ #.Z.^.UXUXUXUXUX",
"UXUXUXUXG.H.z.XX=X6X@XZ./.m.Z.*X;XH.e.e.9._ ( _ o.Y ,.UXUXUXUXUX",
"UXUXUXUXwXF.$.:.) R R r G =X;X~.T.D.x.q.=.( / ( Q r UXUXUXUXUXUX",
"UXUXUXUXnXA.b.S.8.e Q C.=XfX7X/.OXH.M.q.&.( Q G F 6 UXUXUXUXUXUX",
"UXUXUXUXMXV.w.~.,X`.^.wXsX4X,X+X@XH.M.0._ U F F e u UXUXUXUXUXUX",
"UXUXUXUXcXh.Z t T ..8.g.t.*.*.n.@XD.0.=./ J t y g M # UXUXUXUXUX",
"UXUXUXUXUX4.:.2.*.J ) v.).~.S.G.@Xm.=._ F e e y 6.C @ UXUXUXUXUX",
"UXUXUXUXUX>.3.j.( Q _ 2.~.*X~.~.D.4._ H 9 8 8 @.xXN + # UXUXUXUX",
"UXUXUXV m +.>XwX,X'.`.-X,X,X).S.z.( F r , 7 5.BX1X$   @ UXUXUXUX",
"UXV m m V % E.3X5X4XpXbXsX,XG.1.H y e , n W.GXBXB       @ UXUXUX"
};
