/* XPM */
static char *c2ea2551b2f646ecde5b3db82db4fbb1[] = {
/* columns rows colors chars-per-pixel */
"16 16 252 2 ",
"   c #965939",
".  c #8F5537",
"X  c #81482D",
"o  c #7D4529",
"O  c #7E452A",
"+  c #69361F",
"@  c #602F1A",
"#  c #753E24",
"$  c #7A4226",
"%  c #70391F",
"&  c #6A331A",
"*  c #683117",
"=  c #69331A",
"-  c #733C22",
";  c #7F472D",
":  c #915A3F",
">  c #7C3F24",
",  c #672F17",
"<  c #5C2610",
"1  c #59240E",
"2  c #5B2711",
"3  c #532510",
"4  c #542612",
"5  c #643019",
"6  c #723A21",
"7  c #6C361D",
"8  c #652E14",
"9  c #60280F",
"0  c #5A260E",
"q  c #5A260F",
"w  c #602A11",
"e  c #652F16",
"r  c #54210D",
"t  c #4F1E0B",
"y  c #4B1D0A",
"u  c #491D0B",
"i  c #431C0B",
"p  c #3C190C",
"a  c #3A1A0C",
"s  c #3E1A0B",
"d  c #421C0B",
"f  c #481E0D",
"g  c #431A09",
"h  c #3B1708",
"j  c #371709",
"k  c #38180A",
"l  c #3A190B",
"z  c #441B0A",
"x  c #3F1909",
"c  c #371609",
"v  c #30160B",
"b  c #2E160C",
"n  c #2B160C",
"m  c #2C160C",
"M  c #2B140A",
"N  c #2F1409",
"B  c #301409",
"V  c #311308",
"C  c #301308",
"Z  c #2F150A",
"A  c #31160B",
"S  c #2E160B",
"D  c #3F1A09",
"F  c #3D1809",
"G  c #341409",
"H  c #2E130A",
"J  c #2A140C",
"K  c #2A140B",
"L  c #2F150B",
"P  c #2F160B",
"I  c #2E1409",
"U  c #301205",
"Y  c #301207",
"T  c #321308",
"R  c #311309",
"E  c #31160A",
"W  c #321609",
"Q  c #402216",
"!  c #381C10",
"~  c #31160C",
"^  c #2E140C",
"/  c #31180F",
"(  c #32160C",
")  c #35160B",
"_  c #3A1B0F",
"`  c #45332B",
"'  c #4D3B32",
"]  c #452111",
"[  c #341306",
"{  c #2B1309",
"}  c #29150B",
"|  c #2C150B",
" . c #33180C",
".. c #563A2F",
"X. c #3A2017",
"o. c #2D140A",
"O. c #331B12",
"+. c #3E2E26",
"@. c #432A1F",
"#. c #3B2319",
"$. c #321D15",
"%. c #736961",
"&. c #8B9A9A",
"*. c #726254",
"=. c #412416",
"-. c #22120C",
";. c #27160F",
":. c #28160D",
">. c #301A10",
",. c #493128",
"<. c #35211A",
"1. c #37190F",
"2. c #3F3630",
"3. c #3F3E39",
"4. c #4B3B30",
"5. c #281C16",
"6. c #21120C",
"7. c #5B4134",
"8. c #646E6C",
"9. c #545450",
"0. c #453B33",
"q. c #271B14",
"w. c #271912",
"e. c #271812",
"r. c #2D1A12",
"t. c #341F18",
"y. c #32201A",
"u. c #544841",
"i. c #567D83",
"p. c #496D73",
"a. c #44413C",
"s. c #1F140F",
"d. c #1D120E",
"f. c #3E3028",
"g. c #4D4E4A",
"h. c #454B49",
"j. c #372F2A",
"k. c #2E241D",
"l. c #2F221B",
"z. c #322018",
"x. c #4A3128",
"c. c #46362F",
"v. c #6F7471",
"b. c #6CA1AD",
"n. c #5A99A9",
"m. c #444B4B",
"M. c #2A1006",
"N. c #1E0A01",
"B. c #200C03",
"V. c #45423D",
"C. c #607F84",
"Z. c #4C7881",
"A. c #4B6F77",
"S. c #444C4B",
"D. c #45342A",
"F. c #41281C",
"G. c #806257",
"H. c #4C3D36",
"J. c #6F726F",
"K. c #7AABB7",
"L. c #6CB2C6",
"P. c #577C84",
"I. c #474C4B",
"U. c #565550",
"Y. c #6A7371",
"T. c #84A3A7",
"R. c #689FAC",
"E. c #62A8BA",
"W. c #6CADBD",
"Q. c #576464",
"!. c #593323",
"~. c #522F1F",
"^. c #DABDB0",
"/. c #513B33",
"(. c #5B544E",
"). c #77999E",
"_. c #88C1CF",
"`. c #8FC4D1",
"'. c #86C0CF",
"]. c #87BECB",
"[. c #A1D5E2",
"{. c #B0DEE9",
"}. c #A8DBE7",
"|. c #A3D3DD",
" X c #75A3AD",
".X c #675B53",
"XX c #6F4834",
"oX c #66402F",
"OX c #FFEFE2",
"+X c #A5897E",
"@X c #42312A",
"#X c #646763",
"$X c #79989E",
"%X c #9AC3CB",
"&X c #A4CED6",
"*X c #9DC9D2",
"=X c #9CC5CE",
"-X c #B4D9DF",
";X c #A7C6CB",
":X c #7D9CA1",
">X c #747A77",
",X c #6F5344",
"<X c #6E4735",
"1X c #BA9582",
"2X c #FEEADE",
"3X c #F9E3D6",
"4X c #A58B80",
"5X c #5F4D45",
"6X c #6F6862",
"7X c #707976",
"8X c #738080",
"9X c #768584",
"0X c #7F9293",
"qX c #7B8D8D",
"wX c #6F7774",
"eX c #726C65",
"rX c #65493B",
"tX c #865E4C",
"yX c #DABEAF",
"uX c #F0C9B7",
"iX c #F9D5C7",
"pX c #FFE1D3",
"aX c #FDDBCC",
"sX c #C3A294",
"dX c #BB9482",
"fX c #8A6C5C",
"gX c #716055",
"hX c #706156",
"jX c #6F5E51",
"kX c #715E52",
"lX c #6E5445",
"zX c #7A5746",
"xX c #AE8672",
"cX c #F3D2BF",
"vX c #FCD9C8",
"bX c #F1C6B3",
"nX c #E8B39E",
"mX c #ECBCA8",
"MX c #F9D1C1",
"NX c #FFE5D6",
"BX c #EECEBF",
"VX c #9F8E85",
"CX c #80766D",
"ZX c #796D63",
"AX c #78695F",
"SX c #816455",
"DX c #A07866",
"FX c #E6BEAB",
"GX c #FFDCC9",
"HX c #F8D0BE",
"JX c #F6CCB9",
"KX c #F9CBB8",
/* pixels */
"  . X o O + @ # $ % & * = - ; : ",
"> , < 1 2 3 4 5 6 7 8 9 0 q w e ",
"r t y u i p a s d f u g h j k l ",
"z g x c v b n m M N B V C Z A S ",
"D F G H J K L P I U Y T R B E W ",
"Q ! ~ ^ / ( ) _ ` ' ] [ { } |  .",
"..X.o.O.+.@.#.$.%.&.*.=.-.;.:.>.",
",.<.1.2.3.4.5.6.7.8.9.0.q.w.e.r.",
"t.y.u.i.p.a.s.d.-.f.g.h.j.k.l.z.",
"x.c.v.b.n.m.M.N.B.V.C.Z.A.S.D.F.",
"G.H.J.K.L.P.I.U.Y.T.R.E.W.Q.!.~.",
"^./.(.)._.`.'.].[.{.}.|. X.XXXoX",
"OX+X@X#X$X%X&X*X=X-X;X:X>X,X<X1X",
"2X3X4X5X6X7X8X9X0XqXwXeXrXtXyXuX",
"iXpXaXsXdXfXgXhXjXkXlXzXxXcXvXbX",
"nXmXMXNXBXVXCXZXAXSXDXFXGXHXJXKX"
};
